<mxfile host="app.diagrams.net" agent="Mozilla/5.0 (Windows NT 10.0; Win64; x64) AppleWebKit/537.36 (KHTML, like Gecko) Chrome/127.0.0.0 Safari/537.36 Edg/127.0.0.0" version="24.7.6" pages="4">
  <diagram name="Página-1" id="8pBZxs34pLNzvOGZmq_B">
    <mxGraphModel dx="1066" dy="603" grid="1" gridSize="10" guides="1" tooltips="1" connect="1" arrows="1" fold="1" page="1" pageScale="1" pageWidth="827" pageHeight="1169" math="0" shadow="0">
      <root>
        <mxCell id="0" />
        <mxCell id="1" parent="0" />
        <mxCell id="GB98tL4wv8lpsmyrZAGT-2" style="edgeStyle=orthogonalEdgeStyle;rounded=0;orthogonalLoop=1;jettySize=auto;html=1;exitX=0.5;exitY=1;exitDx=0;exitDy=0;exitPerimeter=0;fillColor=#dae8fc;strokeColor=#6c8ebf;" edge="1" parent="1" source="GB98tL4wv8lpsmyrZAGT-1">
          <mxGeometry relative="1" as="geometry">
            <mxPoint x="430.2380952380952" y="290" as="targetPoint" />
          </mxGeometry>
        </mxCell>
        <mxCell id="GB98tL4wv8lpsmyrZAGT-1" value="&lt;font style=&quot;font-size: 24px;&quot;&gt;inicio&lt;/font&gt;" style="strokeWidth=2;html=1;shape=mxgraph.flowchart.start_1;whiteSpace=wrap;fillColor=#dae8fc;strokeColor=#6c8ebf;" vertex="1" parent="1">
          <mxGeometry x="380" y="210" width="100" height="60" as="geometry" />
        </mxCell>
        <mxCell id="GB98tL4wv8lpsmyrZAGT-4" style="edgeStyle=orthogonalEdgeStyle;rounded=0;orthogonalLoop=1;jettySize=auto;html=1;exitX=0.5;exitY=1;exitDx=0;exitDy=0;fillColor=#dae8fc;strokeColor=#6c8ebf;" edge="1" parent="1" source="GB98tL4wv8lpsmyrZAGT-3">
          <mxGeometry relative="1" as="geometry">
            <mxPoint x="430.2380952380952" y="370" as="targetPoint" />
          </mxGeometry>
        </mxCell>
        <mxCell id="GB98tL4wv8lpsmyrZAGT-3" value="&lt;font style=&quot;font-size: 18px;&quot;&gt;num1=10&lt;/font&gt;" style="shape=parallelogram;html=1;strokeWidth=2;perimeter=parallelogramPerimeter;whiteSpace=wrap;rounded=1;arcSize=12;size=0.23;fillColor=#dae8fc;strokeColor=#6c8ebf;" vertex="1" parent="1">
          <mxGeometry x="340" y="290" width="180" height="60" as="geometry" />
        </mxCell>
        <mxCell id="GB98tL4wv8lpsmyrZAGT-7" style="edgeStyle=orthogonalEdgeStyle;rounded=0;orthogonalLoop=1;jettySize=auto;html=1;exitX=0.5;exitY=1;exitDx=0;exitDy=0;fillColor=#dae8fc;strokeColor=#6c8ebf;" edge="1" parent="1" source="GB98tL4wv8lpsmyrZAGT-5">
          <mxGeometry relative="1" as="geometry">
            <mxPoint x="430.2380952380952" y="450" as="targetPoint" />
          </mxGeometry>
        </mxCell>
        <mxCell id="GB98tL4wv8lpsmyrZAGT-5" value="&lt;font style=&quot;font-size: 18px;&quot;&gt;num2=15&lt;/font&gt;" style="shape=parallelogram;html=1;strokeWidth=2;perimeter=parallelogramPerimeter;whiteSpace=wrap;rounded=1;arcSize=12;size=0.23;fillColor=#dae8fc;strokeColor=#6c8ebf;" vertex="1" parent="1">
          <mxGeometry x="340" y="370" width="180" height="60" as="geometry" />
        </mxCell>
        <mxCell id="GB98tL4wv8lpsmyrZAGT-9" value="VERDADEIRO" style="edgeStyle=orthogonalEdgeStyle;rounded=0;orthogonalLoop=1;jettySize=auto;html=1;exitX=1;exitY=0.5;exitDx=0;exitDy=0;exitPerimeter=0;fillColor=#dae8fc;strokeColor=#6c8ebf;" edge="1" parent="1" source="GB98tL4wv8lpsmyrZAGT-8" target="GB98tL4wv8lpsmyrZAGT-10">
          <mxGeometry relative="1" as="geometry">
            <mxPoint x="510" y="499.80952380952374" as="targetPoint" />
          </mxGeometry>
        </mxCell>
        <mxCell id="T0WktHMkKnQmxkIEheab-1" value="" style="edgeLabel;html=1;align=center;verticalAlign=middle;resizable=0;points=[];strokeColor=#D0CEE2;fontColor=#1A1A1A;fillColor=#5D7F99;" vertex="1" connectable="0" parent="GB98tL4wv8lpsmyrZAGT-9">
          <mxGeometry x="-0.7394" y="-1" relative="1" as="geometry">
            <mxPoint as="offset" />
          </mxGeometry>
        </mxCell>
        <mxCell id="GB98tL4wv8lpsmyrZAGT-8" value="num1&amp;gt;num2" style="strokeWidth=2;html=1;shape=mxgraph.flowchart.decision;whiteSpace=wrap;fillColor=#dae8fc;strokeColor=#6c8ebf;" vertex="1" parent="1">
          <mxGeometry x="360" y="450" width="130" height="100" as="geometry" />
        </mxCell>
        <mxCell id="GB98tL4wv8lpsmyrZAGT-10" value="&quot;Monstrar num1&quot;" style="strokeWidth=2;html=1;shape=mxgraph.flowchart.display;whiteSpace=wrap;fillColor=#dae8fc;strokeColor=#6c8ebf;" vertex="1" parent="1">
          <mxGeometry x="600" y="470" width="120" height="60" as="geometry" />
        </mxCell>
        <mxCell id="GB98tL4wv8lpsmyrZAGT-11" value="&quot;Monstrar num2&quot;" style="strokeWidth=2;html=1;shape=mxgraph.flowchart.display;whiteSpace=wrap;direction=west;fillColor=#dae8fc;strokeColor=#6c8ebf;" vertex="1" parent="1">
          <mxGeometry x="160" y="470" width="120" height="60" as="geometry" />
        </mxCell>
        <mxCell id="GB98tL4wv8lpsmyrZAGT-12" value="FALSO" style="edgeStyle=orthogonalEdgeStyle;rounded=0;orthogonalLoop=1;jettySize=auto;html=1;exitX=0;exitY=0.5;exitDx=0;exitDy=0;exitPerimeter=0;entryX=0;entryY=0.5;entryDx=0;entryDy=0;entryPerimeter=0;fillColor=#dae8fc;strokeColor=#6c8ebf;" edge="1" parent="1" source="GB98tL4wv8lpsmyrZAGT-8" target="GB98tL4wv8lpsmyrZAGT-11">
          <mxGeometry relative="1" as="geometry" />
        </mxCell>
        <mxCell id="GB98tL4wv8lpsmyrZAGT-14" value="&lt;font style=&quot;font-size: 18px;&quot;&gt;Fim algoritmo&lt;/font&gt;" style="strokeWidth=2;html=1;shape=mxgraph.flowchart.terminator;whiteSpace=wrap;fillColor=#dae8fc;strokeColor=#6c8ebf;" vertex="1" parent="1">
          <mxGeometry x="380" y="630" width="100" height="60" as="geometry" />
        </mxCell>
        <mxCell id="GB98tL4wv8lpsmyrZAGT-15" style="edgeStyle=orthogonalEdgeStyle;rounded=0;orthogonalLoop=1;jettySize=auto;html=1;exitX=0.5;exitY=1;exitDx=0;exitDy=0;exitPerimeter=0;entryX=1;entryY=0.5;entryDx=0;entryDy=0;entryPerimeter=0;fillColor=#dae8fc;strokeColor=#6c8ebf;" edge="1" parent="1" source="GB98tL4wv8lpsmyrZAGT-10" target="GB98tL4wv8lpsmyrZAGT-14">
          <mxGeometry relative="1" as="geometry" />
        </mxCell>
        <mxCell id="GB98tL4wv8lpsmyrZAGT-16" style="edgeStyle=orthogonalEdgeStyle;rounded=0;orthogonalLoop=1;jettySize=auto;html=1;exitX=0.5;exitY=0;exitDx=0;exitDy=0;exitPerimeter=0;entryX=0;entryY=0.5;entryDx=0;entryDy=0;entryPerimeter=0;fillColor=#dae8fc;strokeColor=#6c8ebf;" edge="1" parent="1" source="GB98tL4wv8lpsmyrZAGT-11" target="GB98tL4wv8lpsmyrZAGT-14">
          <mxGeometry relative="1" as="geometry" />
        </mxCell>
      </root>
    </mxGraphModel>
  </diagram>
  <diagram id="jWhfrKgET6hmMyCPtcEo" name="Página-2">
    <mxGraphModel dx="888" dy="503" grid="1" gridSize="10" guides="1" tooltips="1" connect="1" arrows="1" fold="1" page="1" pageScale="1" pageWidth="827" pageHeight="1169" math="0" shadow="0">
      <root>
        <mxCell id="0" />
        <mxCell id="1" parent="0" />
        <mxCell id="6r8dNWiXpimA7rBfCSFJ-1" style="edgeStyle=orthogonalEdgeStyle;rounded=0;orthogonalLoop=1;jettySize=auto;html=1;exitX=0.5;exitY=1;exitDx=0;exitDy=0;exitPerimeter=0;fillColor=#dae8fc;strokeColor=#6c8ebf;" edge="1" parent="1" source="6r8dNWiXpimA7rBfCSFJ-2">
          <mxGeometry relative="1" as="geometry">
            <mxPoint x="390.2380952380952" y="110" as="targetPoint" />
          </mxGeometry>
        </mxCell>
        <mxCell id="6r8dNWiXpimA7rBfCSFJ-2" value="&lt;font style=&quot;font-size: 24px;&quot;&gt;inicio&lt;/font&gt;" style="strokeWidth=2;html=1;shape=mxgraph.flowchart.start_1;whiteSpace=wrap;fillColor=#dae8fc;strokeColor=#6c8ebf;" vertex="1" parent="1">
          <mxGeometry x="340" y="30" width="100" height="60" as="geometry" />
        </mxCell>
        <mxCell id="6r8dNWiXpimA7rBfCSFJ-3" style="edgeStyle=orthogonalEdgeStyle;rounded=0;orthogonalLoop=1;jettySize=auto;html=1;exitX=0.5;exitY=1;exitDx=0;exitDy=0;fillColor=#dae8fc;strokeColor=#6c8ebf;" edge="1" parent="1" source="6r8dNWiXpimA7rBfCSFJ-4">
          <mxGeometry relative="1" as="geometry">
            <mxPoint x="390.2380952380952" y="190" as="targetPoint" />
          </mxGeometry>
        </mxCell>
        <mxCell id="6r8dNWiXpimA7rBfCSFJ-4" value="&lt;font style=&quot;font-size: 18px;&quot;&gt;idade=18&lt;/font&gt;" style="shape=parallelogram;html=1;strokeWidth=2;perimeter=parallelogramPerimeter;whiteSpace=wrap;rounded=1;arcSize=12;size=0.23;fillColor=#dae8fc;strokeColor=#6c8ebf;" vertex="1" parent="1">
          <mxGeometry x="300" y="110" width="180" height="60" as="geometry" />
        </mxCell>
        <mxCell id="6r8dNWiXpimA7rBfCSFJ-7" value="VERDADEIRO" style="edgeStyle=orthogonalEdgeStyle;rounded=0;orthogonalLoop=1;jettySize=auto;html=1;exitX=1;exitY=0.5;exitDx=0;exitDy=0;exitPerimeter=0;fillColor=#dae8fc;strokeColor=#6c8ebf;" edge="1" parent="1" source="6r8dNWiXpimA7rBfCSFJ-9" target="6r8dNWiXpimA7rBfCSFJ-10">
          <mxGeometry x="-0.0909" relative="1" as="geometry">
            <mxPoint x="480" y="239.80952380952374" as="targetPoint" />
            <mxPoint as="offset" />
          </mxGeometry>
        </mxCell>
        <mxCell id="6r8dNWiXpimA7rBfCSFJ-8" value="" style="edgeLabel;html=1;align=center;verticalAlign=middle;resizable=0;points=[];strokeColor=#D0CEE2;fontColor=#1A1A1A;fillColor=#5D7F99;" vertex="1" connectable="0" parent="6r8dNWiXpimA7rBfCSFJ-7">
          <mxGeometry x="-0.7394" y="-1" relative="1" as="geometry">
            <mxPoint as="offset" />
          </mxGeometry>
        </mxCell>
        <mxCell id="6r8dNWiXpimA7rBfCSFJ-9" value="idade&amp;gt;=18" style="strokeWidth=2;html=1;shape=mxgraph.flowchart.decision;whiteSpace=wrap;fillColor=#dae8fc;strokeColor=#6c8ebf;" vertex="1" parent="1">
          <mxGeometry x="330" y="190" width="130" height="100" as="geometry" />
        </mxCell>
        <mxCell id="6r8dNWiXpimA7rBfCSFJ-10" value="&lt;span style=&quot;color: rgb(26, 26, 26);&quot;&gt;&quot;Seu voto é obrigatorio devido sua idade de 18 anos&quot;&lt;/span&gt;" style="strokeWidth=2;html=1;shape=mxgraph.flowchart.display;whiteSpace=wrap;fillColor=#dae8fc;strokeColor=#6c8ebf;" vertex="1" parent="1">
          <mxGeometry x="570" y="192.5" width="180" height="90" as="geometry" />
        </mxCell>
        <mxCell id="6r8dNWiXpimA7rBfCSFJ-11" value="&lt;span style=&quot;color: rgb(26, 26, 26); font-size: 11px;&quot;&gt;&quot;Seu voto não é obrigatorio devido sua idade ser menor que 18 anos&quot;&lt;/span&gt;" style="strokeWidth=2;html=1;shape=mxgraph.flowchart.display;whiteSpace=wrap;direction=west;fillColor=#dae8fc;strokeColor=#6c8ebf;" vertex="1" parent="1">
          <mxGeometry x="80" y="197.5" width="170" height="85" as="geometry" />
        </mxCell>
        <mxCell id="6r8dNWiXpimA7rBfCSFJ-12" value="FALSO" style="edgeStyle=orthogonalEdgeStyle;rounded=0;orthogonalLoop=1;jettySize=auto;html=1;exitX=0;exitY=0.5;exitDx=0;exitDy=0;exitPerimeter=0;entryX=0;entryY=0.5;entryDx=0;entryDy=0;entryPerimeter=0;fillColor=#dae8fc;strokeColor=#6c8ebf;" edge="1" parent="1" source="6r8dNWiXpimA7rBfCSFJ-9" target="6r8dNWiXpimA7rBfCSFJ-11">
          <mxGeometry relative="1" as="geometry" />
        </mxCell>
        <mxCell id="6r8dNWiXpimA7rBfCSFJ-13" value="&lt;font style=&quot;font-size: 18px;&quot;&gt;Fim algoritmo&lt;/font&gt;" style="strokeWidth=2;html=1;shape=mxgraph.flowchart.terminator;whiteSpace=wrap;fillColor=#dae8fc;strokeColor=#6c8ebf;" vertex="1" parent="1">
          <mxGeometry x="350" y="370" width="100" height="60" as="geometry" />
        </mxCell>
        <mxCell id="6r8dNWiXpimA7rBfCSFJ-14" style="edgeStyle=orthogonalEdgeStyle;rounded=0;orthogonalLoop=1;jettySize=auto;html=1;exitX=0.5;exitY=1;exitDx=0;exitDy=0;exitPerimeter=0;entryX=1;entryY=0.5;entryDx=0;entryDy=0;entryPerimeter=0;fillColor=#dae8fc;strokeColor=#6c8ebf;" edge="1" parent="1" source="6r8dNWiXpimA7rBfCSFJ-10" target="6r8dNWiXpimA7rBfCSFJ-13">
          <mxGeometry relative="1" as="geometry" />
        </mxCell>
        <mxCell id="6r8dNWiXpimA7rBfCSFJ-15" style="edgeStyle=orthogonalEdgeStyle;rounded=0;orthogonalLoop=1;jettySize=auto;html=1;exitX=0.5;exitY=0;exitDx=0;exitDy=0;exitPerimeter=0;entryX=0;entryY=0.5;entryDx=0;entryDy=0;entryPerimeter=0;fillColor=#dae8fc;strokeColor=#6c8ebf;" edge="1" parent="1" source="6r8dNWiXpimA7rBfCSFJ-11" target="6r8dNWiXpimA7rBfCSFJ-13">
          <mxGeometry relative="1" as="geometry" />
        </mxCell>
      </root>
    </mxGraphModel>
  </diagram>
  <diagram id="Pk0XbhfFNUI59vwgUtMH" name="Página-3">
    <mxGraphModel dx="1066" dy="603" grid="1" gridSize="10" guides="1" tooltips="1" connect="1" arrows="1" fold="1" page="1" pageScale="1" pageWidth="827" pageHeight="1169" math="0" shadow="0">
      <root>
        <mxCell id="0" />
        <mxCell id="1" parent="0" />
        <mxCell id="mblyupIpcDaMy43dZ6f9-2" style="edgeStyle=orthogonalEdgeStyle;rounded=0;orthogonalLoop=1;jettySize=auto;html=1;exitX=0.5;exitY=1;exitDx=0;exitDy=0;exitPerimeter=0;entryX=0.5;entryY=0;entryDx=0;entryDy=0;strokeColor=#736CA8;fontColor=#1A1A1A;" edge="1" parent="1" source="rqknYgUBxeWVGn9RCR43-1" target="mblyupIpcDaMy43dZ6f9-1">
          <mxGeometry relative="1" as="geometry" />
        </mxCell>
        <mxCell id="rqknYgUBxeWVGn9RCR43-1" value="&lt;font style=&quot;font-size: 24px;&quot;&gt;inicio&lt;/font&gt;" style="strokeWidth=2;html=1;shape=mxgraph.flowchart.start_1;whiteSpace=wrap;fillColor=#dae8fc;strokeColor=#6c8ebf;" vertex="1" parent="1">
          <mxGeometry x="364" y="20" width="100" height="60" as="geometry" />
        </mxCell>
        <mxCell id="mblyupIpcDaMy43dZ6f9-1" value="&lt;font style=&quot;font-size: 18px;&quot;&gt;nota1=7&lt;/font&gt;" style="shape=parallelogram;html=1;strokeWidth=2;perimeter=parallelogramPerimeter;whiteSpace=wrap;rounded=1;arcSize=12;size=0.23;fillColor=#dae8fc;strokeColor=#6c8ebf;" vertex="1" parent="1">
          <mxGeometry x="324" y="110" width="180" height="60" as="geometry" />
        </mxCell>
        <mxCell id="nA3s824Am5ixv8-oZr6B-1" style="edgeStyle=orthogonalEdgeStyle;rounded=0;orthogonalLoop=1;jettySize=auto;html=1;exitX=0.5;exitY=1;exitDx=0;exitDy=0;strokeColor=#736CA8;fontColor=#1A1A1A;" edge="1" parent="1" source="mblyupIpcDaMy43dZ6f9-3">
          <mxGeometry relative="1" as="geometry">
            <mxPoint x="410" y="270" as="targetPoint" />
          </mxGeometry>
        </mxCell>
        <mxCell id="mblyupIpcDaMy43dZ6f9-3" value="&lt;font style=&quot;font-size: 18px;&quot;&gt;nota2=8&lt;/font&gt;" style="shape=parallelogram;html=1;strokeWidth=2;perimeter=parallelogramPerimeter;whiteSpace=wrap;rounded=1;arcSize=12;size=0.23;fillColor=#dae8fc;strokeColor=#6c8ebf;" vertex="1" parent="1">
          <mxGeometry x="320" y="190" width="180" height="60" as="geometry" />
        </mxCell>
        <mxCell id="mblyupIpcDaMy43dZ6f9-4" style="edgeStyle=orthogonalEdgeStyle;rounded=0;orthogonalLoop=1;jettySize=auto;html=1;exitX=0.5;exitY=1;exitDx=0;exitDy=0;entryX=0.544;entryY=-0.017;entryDx=0;entryDy=0;entryPerimeter=0;strokeColor=#736CA8;fontColor=#1A1A1A;" edge="1" parent="1" source="mblyupIpcDaMy43dZ6f9-1" target="mblyupIpcDaMy43dZ6f9-3">
          <mxGeometry relative="1" as="geometry" />
        </mxCell>
        <mxCell id="wPfGDYqm9KKHxVgTgNEA-3" style="edgeStyle=orthogonalEdgeStyle;rounded=0;orthogonalLoop=1;jettySize=auto;html=1;exitX=0.5;exitY=1;exitDx=0;exitDy=0;strokeColor=#736CA8;fontColor=#1A1A1A;" edge="1" parent="1" source="wPfGDYqm9KKHxVgTgNEA-2">
          <mxGeometry relative="1" as="geometry">
            <mxPoint x="409.8275862068965" y="390" as="targetPoint" />
          </mxGeometry>
        </mxCell>
        <mxCell id="wPfGDYqm9KKHxVgTgNEA-2" value="media=(nota1+nota2)/2" style="html=1;strokeWidth=2;shape=manualInput;whiteSpace=wrap;rounded=1;size=26;arcSize=11;strokeColor=#6c8ebf;fillColor=#dae8fc;" vertex="1" parent="1">
          <mxGeometry x="320" y="260" width="180" height="108" as="geometry" />
        </mxCell>
        <mxCell id="jM6HmVYT87G7fZZcEv-y-2" value="VERDADEIRO" style="edgeStyle=orthogonalEdgeStyle;rounded=0;orthogonalLoop=1;jettySize=auto;html=1;exitX=1;exitY=0.5;exitDx=0;exitDy=0;exitPerimeter=0;fillColor=#dae8fc;strokeColor=#6c8ebf;" edge="1" parent="1" source="jM6HmVYT87G7fZZcEv-y-4" target="jM6HmVYT87G7fZZcEv-y-5">
          <mxGeometry x="-0.0909" relative="1" as="geometry">
            <mxPoint x="500" y="439.80952380952374" as="targetPoint" />
            <mxPoint as="offset" />
          </mxGeometry>
        </mxCell>
        <mxCell id="jM6HmVYT87G7fZZcEv-y-3" value="" style="edgeLabel;html=1;align=center;verticalAlign=middle;resizable=0;points=[];strokeColor=#D0CEE2;fontColor=#1A1A1A;fillColor=#5D7F99;" vertex="1" connectable="0" parent="jM6HmVYT87G7fZZcEv-y-2">
          <mxGeometry x="-0.7394" y="-1" relative="1" as="geometry">
            <mxPoint as="offset" />
          </mxGeometry>
        </mxCell>
        <mxCell id="jM6HmVYT87G7fZZcEv-y-4" value="media&amp;gt;=7" style="strokeWidth=2;html=1;shape=mxgraph.flowchart.decision;whiteSpace=wrap;fillColor=#dae8fc;strokeColor=#6c8ebf;" vertex="1" parent="1">
          <mxGeometry x="350" y="390" width="130" height="100" as="geometry" />
        </mxCell>
        <mxCell id="jM6HmVYT87G7fZZcEv-y-5" value="&lt;font color=&quot;#1a1a1a&quot;&gt;&quot;APROVADO&quot;&lt;/font&gt;" style="strokeWidth=2;html=1;shape=mxgraph.flowchart.display;whiteSpace=wrap;fillColor=#dae8fc;strokeColor=#6c8ebf;" vertex="1" parent="1">
          <mxGeometry x="590" y="392.5" width="180" height="90" as="geometry" />
        </mxCell>
        <mxCell id="jM6HmVYT87G7fZZcEv-y-6" value="&lt;font color=&quot;#1a1a1a&quot;&gt;&lt;span style=&quot;font-size: 11px;&quot;&gt;&quot;REPROVADO&quot;&lt;/span&gt;&lt;/font&gt;" style="strokeWidth=2;html=1;shape=mxgraph.flowchart.display;whiteSpace=wrap;direction=west;fillColor=#dae8fc;strokeColor=#6c8ebf;" vertex="1" parent="1">
          <mxGeometry x="100" y="397.5" width="170" height="85" as="geometry" />
        </mxCell>
        <mxCell id="jM6HmVYT87G7fZZcEv-y-7" value="FALSO" style="edgeStyle=orthogonalEdgeStyle;rounded=0;orthogonalLoop=1;jettySize=auto;html=1;exitX=0;exitY=0.5;exitDx=0;exitDy=0;exitPerimeter=0;entryX=0;entryY=0.5;entryDx=0;entryDy=0;entryPerimeter=0;fillColor=#dae8fc;strokeColor=#6c8ebf;" edge="1" parent="1" source="jM6HmVYT87G7fZZcEv-y-4" target="jM6HmVYT87G7fZZcEv-y-6">
          <mxGeometry relative="1" as="geometry" />
        </mxCell>
        <mxCell id="jM6HmVYT87G7fZZcEv-y-8" value="&lt;font style=&quot;font-size: 18px;&quot;&gt;Fim algoritmo&lt;/font&gt;" style="strokeWidth=2;html=1;shape=mxgraph.flowchart.terminator;whiteSpace=wrap;fillColor=#dae8fc;strokeColor=#6c8ebf;" vertex="1" parent="1">
          <mxGeometry x="370" y="570" width="100" height="60" as="geometry" />
        </mxCell>
        <mxCell id="jM6HmVYT87G7fZZcEv-y-9" style="edgeStyle=orthogonalEdgeStyle;rounded=0;orthogonalLoop=1;jettySize=auto;html=1;exitX=0.5;exitY=1;exitDx=0;exitDy=0;exitPerimeter=0;entryX=1;entryY=0.5;entryDx=0;entryDy=0;entryPerimeter=0;fillColor=#dae8fc;strokeColor=#6c8ebf;" edge="1" parent="1" source="jM6HmVYT87G7fZZcEv-y-5" target="jM6HmVYT87G7fZZcEv-y-8">
          <mxGeometry relative="1" as="geometry" />
        </mxCell>
        <mxCell id="jM6HmVYT87G7fZZcEv-y-10" style="edgeStyle=orthogonalEdgeStyle;rounded=0;orthogonalLoop=1;jettySize=auto;html=1;exitX=0.5;exitY=0;exitDx=0;exitDy=0;exitPerimeter=0;entryX=0;entryY=0.5;entryDx=0;entryDy=0;entryPerimeter=0;fillColor=#dae8fc;strokeColor=#6c8ebf;" edge="1" parent="1" source="jM6HmVYT87G7fZZcEv-y-6" target="jM6HmVYT87G7fZZcEv-y-8">
          <mxGeometry relative="1" as="geometry" />
        </mxCell>
      </root>
    </mxGraphModel>
  </diagram>
  <diagram id="lAAmP-lrW41cW4rbeknP" name="Página-4">
    <mxGraphModel dx="1066" dy="603" grid="1" gridSize="10" guides="1" tooltips="1" connect="1" arrows="1" fold="1" page="1" pageScale="1" pageWidth="827" pageHeight="1169" math="0" shadow="0">
      <root>
        <mxCell id="0" />
        <mxCell id="1" parent="0" />
        <mxCell id="rtSDBQKT3_GQIALtx2Jw-1" style="edgeStyle=orthogonalEdgeStyle;rounded=0;orthogonalLoop=1;jettySize=auto;html=1;exitX=0.5;exitY=1;exitDx=0;exitDy=0;exitPerimeter=0;entryX=0.5;entryY=0;entryDx=0;entryDy=0;strokeColor=#736CA8;fontColor=#1A1A1A;" edge="1" parent="1" source="rtSDBQKT3_GQIALtx2Jw-2" target="rtSDBQKT3_GQIALtx2Jw-3">
          <mxGeometry relative="1" as="geometry" />
        </mxCell>
        <mxCell id="rtSDBQKT3_GQIALtx2Jw-2" value="&lt;font style=&quot;font-size: 24px;&quot;&gt;inicio&lt;/font&gt;" style="strokeWidth=2;html=1;shape=mxgraph.flowchart.start_1;whiteSpace=wrap;fillColor=#dae8fc;strokeColor=#6c8ebf;" vertex="1" parent="1">
          <mxGeometry x="364" y="20" width="100" height="60" as="geometry" />
        </mxCell>
        <mxCell id="rtSDBQKT3_GQIALtx2Jw-3" value="&lt;span style=&quot;font-size: 18px;&quot;&gt;num1=15&lt;/span&gt;" style="shape=parallelogram;html=1;strokeWidth=2;perimeter=parallelogramPerimeter;whiteSpace=wrap;rounded=1;arcSize=12;size=0.23;fillColor=#dae8fc;strokeColor=#6c8ebf;" vertex="1" parent="1">
          <mxGeometry x="324" y="110" width="180" height="60" as="geometry" />
        </mxCell>
        <mxCell id="rtSDBQKT3_GQIALtx2Jw-4" style="edgeStyle=orthogonalEdgeStyle;rounded=0;orthogonalLoop=1;jettySize=auto;html=1;exitX=0.5;exitY=1;exitDx=0;exitDy=0;strokeColor=#736CA8;fontColor=#1A1A1A;" edge="1" parent="1" source="rtSDBQKT3_GQIALtx2Jw-5">
          <mxGeometry relative="1" as="geometry">
            <mxPoint x="410" y="270" as="targetPoint" />
          </mxGeometry>
        </mxCell>
        <mxCell id="rtSDBQKT3_GQIALtx2Jw-5" value="&lt;font style=&quot;font-size: 18px;&quot;&gt;num2=8&lt;/font&gt;" style="shape=parallelogram;html=1;strokeWidth=2;perimeter=parallelogramPerimeter;whiteSpace=wrap;rounded=1;arcSize=12;size=0.23;fillColor=#dae8fc;strokeColor=#6c8ebf;" vertex="1" parent="1">
          <mxGeometry x="320" y="190" width="180" height="60" as="geometry" />
        </mxCell>
        <mxCell id="rtSDBQKT3_GQIALtx2Jw-6" style="edgeStyle=orthogonalEdgeStyle;rounded=0;orthogonalLoop=1;jettySize=auto;html=1;exitX=0.5;exitY=1;exitDx=0;exitDy=0;entryX=0.544;entryY=-0.017;entryDx=0;entryDy=0;entryPerimeter=0;strokeColor=#736CA8;fontColor=#1A1A1A;" edge="1" parent="1" source="rtSDBQKT3_GQIALtx2Jw-3" target="rtSDBQKT3_GQIALtx2Jw-5">
          <mxGeometry relative="1" as="geometry" />
        </mxCell>
        <mxCell id="rtSDBQKT3_GQIALtx2Jw-7" style="edgeStyle=orthogonalEdgeStyle;rounded=0;orthogonalLoop=1;jettySize=auto;html=1;exitX=0.5;exitY=1;exitDx=0;exitDy=0;strokeColor=#736CA8;fontColor=#1A1A1A;" edge="1" parent="1" source="rtSDBQKT3_GQIALtx2Jw-8">
          <mxGeometry relative="1" as="geometry">
            <mxPoint x="409.8275862068965" y="390" as="targetPoint" />
          </mxGeometry>
        </mxCell>
        <mxCell id="rtSDBQKT3_GQIALtx2Jw-8" value="media=(nota1+nota2)/2" style="html=1;strokeWidth=2;shape=manualInput;whiteSpace=wrap;rounded=1;size=26;arcSize=11;strokeColor=#6c8ebf;fillColor=#dae8fc;" vertex="1" parent="1">
          <mxGeometry x="320" y="260" width="180" height="108" as="geometry" />
        </mxCell>
        <mxCell id="rtSDBQKT3_GQIALtx2Jw-9" value="VERDADEIRO" style="edgeStyle=orthogonalEdgeStyle;rounded=0;orthogonalLoop=1;jettySize=auto;html=1;exitX=1;exitY=0.5;exitDx=0;exitDy=0;exitPerimeter=0;fillColor=#dae8fc;strokeColor=#6c8ebf;" edge="1" parent="1" source="rtSDBQKT3_GQIALtx2Jw-11" target="rtSDBQKT3_GQIALtx2Jw-12">
          <mxGeometry x="-0.0909" relative="1" as="geometry">
            <mxPoint x="500" y="439.80952380952374" as="targetPoint" />
            <mxPoint as="offset" />
          </mxGeometry>
        </mxCell>
        <mxCell id="rtSDBQKT3_GQIALtx2Jw-10" value="" style="edgeLabel;html=1;align=center;verticalAlign=middle;resizable=0;points=[];strokeColor=#D0CEE2;fontColor=#1A1A1A;fillColor=#5D7F99;" vertex="1" connectable="0" parent="rtSDBQKT3_GQIALtx2Jw-9">
          <mxGeometry x="-0.7394" y="-1" relative="1" as="geometry">
            <mxPoint as="offset" />
          </mxGeometry>
        </mxCell>
        <mxCell id="rtSDBQKT3_GQIALtx2Jw-11" value="media&amp;gt;=7" style="strokeWidth=2;html=1;shape=mxgraph.flowchart.decision;whiteSpace=wrap;fillColor=#dae8fc;strokeColor=#6c8ebf;" vertex="1" parent="1">
          <mxGeometry x="350" y="390" width="130" height="100" as="geometry" />
        </mxCell>
        <mxCell id="rtSDBQKT3_GQIALtx2Jw-12" value="&lt;font color=&quot;#1a1a1a&quot;&gt;&quot;APROVADO&quot;&lt;/font&gt;" style="strokeWidth=2;html=1;shape=mxgraph.flowchart.display;whiteSpace=wrap;fillColor=#dae8fc;strokeColor=#6c8ebf;" vertex="1" parent="1">
          <mxGeometry x="590" y="392.5" width="180" height="90" as="geometry" />
        </mxCell>
        <mxCell id="rtSDBQKT3_GQIALtx2Jw-13" value="&lt;font color=&quot;#1a1a1a&quot;&gt;&lt;span style=&quot;font-size: 11px;&quot;&gt;&quot;REPROVADO&quot;&lt;/span&gt;&lt;/font&gt;" style="strokeWidth=2;html=1;shape=mxgraph.flowchart.display;whiteSpace=wrap;direction=west;fillColor=#dae8fc;strokeColor=#6c8ebf;" vertex="1" parent="1">
          <mxGeometry x="100" y="397.5" width="170" height="85" as="geometry" />
        </mxCell>
        <mxCell id="rtSDBQKT3_GQIALtx2Jw-14" value="FALSO" style="edgeStyle=orthogonalEdgeStyle;rounded=0;orthogonalLoop=1;jettySize=auto;html=1;exitX=0;exitY=0.5;exitDx=0;exitDy=0;exitPerimeter=0;entryX=0;entryY=0.5;entryDx=0;entryDy=0;entryPerimeter=0;fillColor=#dae8fc;strokeColor=#6c8ebf;" edge="1" parent="1" source="rtSDBQKT3_GQIALtx2Jw-11" target="rtSDBQKT3_GQIALtx2Jw-13">
          <mxGeometry relative="1" as="geometry" />
        </mxCell>
        <mxCell id="rtSDBQKT3_GQIALtx2Jw-15" value="&lt;font style=&quot;font-size: 18px;&quot;&gt;Fim algoritmo&lt;/font&gt;" style="strokeWidth=2;html=1;shape=mxgraph.flowchart.terminator;whiteSpace=wrap;fillColor=#dae8fc;strokeColor=#6c8ebf;" vertex="1" parent="1">
          <mxGeometry x="370" y="570" width="100" height="60" as="geometry" />
        </mxCell>
        <mxCell id="rtSDBQKT3_GQIALtx2Jw-16" style="edgeStyle=orthogonalEdgeStyle;rounded=0;orthogonalLoop=1;jettySize=auto;html=1;exitX=0.5;exitY=1;exitDx=0;exitDy=0;exitPerimeter=0;entryX=1;entryY=0.5;entryDx=0;entryDy=0;entryPerimeter=0;fillColor=#dae8fc;strokeColor=#6c8ebf;" edge="1" parent="1" source="rtSDBQKT3_GQIALtx2Jw-12" target="rtSDBQKT3_GQIALtx2Jw-15">
          <mxGeometry relative="1" as="geometry" />
        </mxCell>
        <mxCell id="rtSDBQKT3_GQIALtx2Jw-17" style="edgeStyle=orthogonalEdgeStyle;rounded=0;orthogonalLoop=1;jettySize=auto;html=1;exitX=0.5;exitY=0;exitDx=0;exitDy=0;exitPerimeter=0;entryX=0;entryY=0.5;entryDx=0;entryDy=0;entryPerimeter=0;fillColor=#dae8fc;strokeColor=#6c8ebf;" edge="1" parent="1" source="rtSDBQKT3_GQIALtx2Jw-13" target="rtSDBQKT3_GQIALtx2Jw-15">
          <mxGeometry relative="1" as="geometry" />
        </mxCell>
      </root>
    </mxGraphModel>
  </diagram>
</mxfile>
